<?xml version="1.0" encoding="UTF-8"?>
<!DOCTYPE svg PUBLIC "-//W3C//DTD SVG 1.1//EN" "http://www.w3.org/Graphics/SVG/1.1/DTD/svg11.dtd">
<svg xmlns="http://www.w3.org/2000/svg" version="1.1" width="500px" height="500px" style="shape-rendering:geometricPrecision; text-rendering:geometricPrecision; image-rendering:optimizeQuality; fill-rule:evenodd; clip-rule:evenodd" xmlns:xlink="http://www.w3.org/1999/xlink">
<g><path style="opacity:1" fill="#fefefe" d="M -0.5,-0.5 C 166.167,-0.5 332.833,-0.5 499.5,-0.5C 499.5,166.167 499.5,332.833 499.5,499.5C 332.833,499.5 166.167,499.5 -0.5,499.5C -0.5,332.833 -0.5,166.167 -0.5,-0.5 Z"/></g>
<g><path style="opacity:1" fill="#a88cd8" d="M 159.5,77.5 C 155.327,76.9564 151.494,77.623 148,79.5C 141.433,78.5193 134.599,78.5193 127.5,79.5C 132.429,77.7011 137.762,76.5345 143.5,76C 146.167,75.8333 148.833,75.6667 151.5,75.5C 154.59,75.5217 157.257,76.1883 159.5,77.5 Z"/></g>
<g><path style="opacity:1" fill="#bbaadc" d="M 117.5,80.5 C 119.799,82.1323 121.799,84.1323 123.5,86.5C 120.18,85.842 117.513,84.1753 115.5,81.5C 115.957,80.7025 116.624,80.3691 117.5,80.5 Z"/></g>
<g><path style="opacity:1" fill="#9b79d8" d="M 159.5,77.5 C 170.739,82.7896 181.406,89.1229 191.5,96.5C 185.215,97.6471 178.882,98.3138 172.5,98.5C 172.575,102.981 171.908,107.314 170.5,111.5C 164.19,109.865 157.856,108.031 151.5,106C 144.208,104.884 136.874,104.384 129.5,104.5C 129.205,102.265 129.539,100.265 130.5,98.5C 131.391,96.7095 132.391,94.8761 133.5,93C 136.882,92.8236 140.215,92.3236 143.5,91.5C 137.962,91.0087 132.629,90.0087 127.5,88.5C 125.847,88.3404 124.514,87.6737 123.5,86.5C 121.799,84.1323 119.799,82.1323 117.5,80.5C 120.764,79.6758 124.098,79.3424 127.5,79.5C 134.599,78.5193 141.433,78.5193 148,79.5C 151.494,77.623 155.327,76.9564 159.5,77.5 Z"/></g>
<g><path style="opacity:1" fill="#d5c1f0" d="M 127.5,88.5 C 132.629,90.0087 137.962,91.0087 143.5,91.5C 140.215,92.3236 136.882,92.8236 133.5,93C 132.391,94.8761 131.391,96.7095 130.5,98.5C 130.244,96.2075 130.577,94.0408 131.5,92C 129.676,91.34 128.343,90.1733 127.5,88.5 Z"/></g>
<g><path style="opacity:1" fill="#9b78d9" d="M 137.5,108.5 C 145.332,107.73 152.498,109.397 159,113.5C 169.442,127.561 166.942,139.061 151.5,148C 139.269,151.134 130.769,146.967 126,135.5C 123.333,123.521 127.166,114.521 137.5,108.5 Z"/></g>
<g><path style="opacity:1" fill="#d4c2ef" d="M 111.5,115.5 C 113.136,119.21 113.802,123.21 113.5,127.5C 111.864,123.79 111.198,119.79 111.5,115.5 Z"/></g>
<g><path style="opacity:1" fill="#baa7db" d="M 207.5,136.5 C 203.949,138.111 200.949,140.444 198.5,143.5C 197.833,143.5 197.167,143.5 196.5,143.5C 199.043,140.22 202.043,137.387 205.5,135C 207.65,133.41 209.983,132.743 212.5,133C 211.154,134.669 209.487,135.836 207.5,136.5 Z"/></g>
<g><path style="opacity:1" fill="#9c79d9" d="M 188.5,143.5 C 185.08,147.14 181.413,150.64 177.5,154C 175.085,159.41 172.251,164.577 169,169.5C 168.51,170.793 168.343,172.127 168.5,173.5C 161.977,170.935 155.477,168.269 149,165.5C 147.234,166.233 145.401,166.567 143.5,166.5C 143.5,165.833 143.5,165.167 143.5,164.5C 156.884,150.318 172.217,138.818 189.5,130C 195.359,127.604 201.359,127.104 207.5,128.5C 204.501,131.013 201.167,132.846 197.5,134C 194.246,137.083 191.246,140.249 188.5,143.5 Z"/></g>
<g><path style="opacity:1" fill="#9c78dd" d="M 196.5,143.5 C 197.167,143.5 197.833,143.5 198.5,143.5C 199.573,144.251 199.74,145.251 199,146.5C 197.949,149.961 195.949,152.627 193,154.5C 192.73,157.362 191.896,160.028 190.5,162.5C 189.77,161.066 188.77,159.9 187.5,159C 188.036,155.376 189.369,152.21 191.5,149.5C 191.733,147.938 192.4,146.605 193.5,145.5C 194.5,144.833 195.5,144.167 196.5,143.5 Z"/></g>
<g><path style="opacity:1" fill="#a289d2" d="M 106.5,127.5 C 105.128,140.137 104.128,152.804 103.5,165.5C 103.167,165.5 102.833,165.5 102.5,165.5C 102.334,158.159 102.5,150.826 103,143.5C 103.576,137.897 104.743,132.564 106.5,127.5 Z"/></g>
<g><path style="opacity:1" fill="#9d7ad9" d="M 111.5,115.5 C 111.198,119.79 111.864,123.79 113.5,127.5C 114.702,133.572 116.202,139.572 118,145.5C 120.789,151.407 123.289,157.407 125.5,163.5C 118.372,165.24 111.039,165.907 103.5,165.5C 104.128,152.804 105.128,140.137 106.5,127.5C 106.45,121.697 107.95,116.364 111,111.5C 111.49,112.793 111.657,114.127 111.5,115.5 Z"/></g>
<g><path style="opacity:1" fill="#a389d6" d="M 207.5,136.5 C 207.509,138.308 207.009,139.975 206,141.5C 201.952,145.254 198.618,149.587 196,154.5C 192.387,163.844 188.887,173.177 185.5,182.5C 186.007,175.595 187.007,168.762 188.5,162C 187.381,160.124 185.714,159.291 183.5,159.5C 185.088,155.251 187.755,151.918 191.5,149.5C 189.369,152.21 188.036,155.376 187.5,159C 188.77,159.9 189.77,161.066 190.5,162.5C 191.896,160.028 192.73,157.362 193,154.5C 195.949,152.627 197.949,149.961 199,146.5C 199.74,145.251 199.573,144.251 198.5,143.5C 200.949,140.444 203.949,138.111 207.5,136.5 Z"/></g>
<g><path style="opacity:1" fill="#f5f0f9" d="M 188.5,143.5 C 190.068,145.931 191.568,145.931 193,143.5C 193.464,144.094 193.631,144.761 193.5,145.5C 192.4,146.605 191.733,147.938 191.5,149.5C 187.755,151.918 185.088,155.251 183.5,159.5C 181.554,163.342 179.054,167.008 176,170.5C 175.506,172.134 175.34,173.801 175.5,175.5C 174.5,175.5 173.5,175.5 172.5,175.5C 172.167,175.5 171.833,175.5 171.5,175.5C 170.391,175.443 169.391,175.11 168.5,174.5C 168.5,174.167 168.5,173.833 168.5,173.5C 168.343,172.127 168.51,170.793 169,169.5C 172.251,164.577 175.085,159.41 177.5,154C 181.413,150.64 185.08,147.14 188.5,143.5 Z"/></g>
<g><path style="opacity:1" fill="#4c0c8a" d="M 125.5,163.5 C 131.69,163.177 137.69,163.51 143.5,164.5C 143.5,165.167 143.5,165.833 143.5,166.5C 140.853,168.811 138.186,171.144 135.5,173.5C 131.868,170.535 128.535,167.201 125.5,163.5 Z"/></g>
<g><path style="opacity:1" fill="#7e4dc5" d="M 125.5,163.5 C 128.535,167.201 131.868,170.535 135.5,173.5C 138.186,171.144 140.853,168.811 143.5,166.5C 145.401,166.567 147.234,166.233 149,165.5C 155.477,168.269 161.977,170.935 168.5,173.5C 168.5,173.833 168.5,174.167 168.5,174.5C 164.288,179.273 161.955,184.94 161.5,191.5C 160.178,191.33 159.011,191.663 158,192.5C 157.602,196.628 156.102,200.294 153.5,203.5C 153.167,202.833 152.833,202.167 152.5,201.5C 153.795,198.284 154.462,194.951 154.5,191.5C 152.533,191.261 150.699,191.594 149,192.5C 148.61,197.533 146.444,201.533 142.5,204.5C 142.167,204 141.833,203.5 141.5,203C 142.244,200.845 143.244,198.845 144.5,197C 142.65,194.307 140.983,191.474 139.5,188.5C 138.526,186.257 138.192,183.924 138.5,181.5C 136.336,182.478 134.17,183.478 132,184.5C 126.602,182.777 121.102,182.277 115.5,183C 113.327,185.698 112.994,188.531 114.5,191.5C 113.317,194.381 112.317,197.381 111.5,200.5C 111.5,201.833 111.5,203.167 111.5,204.5C 109.127,197.555 106.627,190.555 104,183.5C 103.877,177.586 103.044,171.919 101.5,166.5C 101.5,166.167 101.5,165.833 101.5,165.5C 101.833,165.5 102.167,165.5 102.5,165.5C 102.833,165.5 103.167,165.5 103.5,165.5C 111.039,165.907 118.372,165.24 125.5,163.5 Z"/></g>
<g><path style="opacity:1" fill="#dec2ee" d="M 101.5,165.5 C 101.5,165.833 101.5,166.167 101.5,166.5C 91.5,166.5 81.5,166.5 71.5,166.5C 71.5,228.167 71.5,289.833 71.5,351.5C 70.5009,289.669 70.1676,227.669 70.5,165.5C 80.8333,165.5 91.1667,165.5 101.5,165.5 Z"/></g>
<g><path style="opacity:1" fill="#3f0a77" d="M 101.5,166.5 C 92.0144,167.494 82.3478,167.827 72.5,167.5C 72.5,228.833 72.5,290.167 72.5,351.5C 72.1667,351.5 71.8333,351.5 71.5,351.5C 71.5,289.833 71.5,228.167 71.5,166.5C 81.5,166.5 91.5,166.5 101.5,166.5 Z"/></g>
<g><path style="opacity:1" fill="#4a028a" d="M 101.5,166.5 C 103.044,171.919 103.877,177.586 104,183.5C 106.627,190.555 109.127,197.555 111.5,204.5C 118.118,220.641 127.785,234.807 140.5,247C 142.887,249.095 145.553,250.595 148.5,251.5C 148.334,247.486 148.501,243.486 149,239.5C 151.132,228.754 153.299,218.088 155.5,207.5C 156.202,206.884 157.202,206.884 158.5,207.5C 159.091,208.151 159.757,208.818 160.5,209.5C 156.382,222.92 153.882,236.586 153,250.5C 158.793,239.391 164.293,228.058 169.5,216.5C 170.609,225.735 172.609,234.735 175.5,243.5C 176.5,243.5 177.5,243.5 178.5,243.5C 178.209,230.44 178.876,217.44 180.5,204.5C 181.167,202.833 181.833,201.167 182.5,199.5C 182.423,195.785 182.756,192.119 183.5,188.5C 184.5,188.5 185.5,188.5 186.5,188.5C 187.954,190.437 189.621,192.103 191.5,193.5C 192.854,199.064 194.52,204.564 196.5,210C 201,250.171 183.333,273.838 143.5,281C 134.875,282.201 126.208,282.701 117.5,282.5C 117.5,305.5 117.5,328.5 117.5,351.5C 105.833,351.5 94.1667,351.5 82.5,351.5C 79.1667,351.5 75.8333,351.5 72.5,351.5C 72.5,290.167 72.5,228.833 72.5,167.5C 82.3478,167.827 92.0144,167.494 101.5,166.5 Z"/></g>
<g><path style="opacity:1" fill="#9b77da" d="M 183.5,159.5 C 185.714,159.291 187.381,160.124 188.5,162C 187.007,168.762 186.007,175.595 185.5,182.5C 185.5,183.833 185.5,185.167 185.5,186.5C 181.376,182.587 177.043,178.921 172.5,175.5C 173.5,175.5 174.5,175.5 175.5,175.5C 175.34,173.801 175.506,172.134 176,170.5C 179.054,167.008 181.554,163.342 183.5,159.5 Z"/></g>
<g><path style="opacity:1" fill="#7c4bc1" d="M 171.5,175.5 C 171.833,175.5 172.167,175.5 172.5,175.5C 177.043,178.921 181.376,182.587 185.5,186.5C 185.833,187.167 186.167,187.833 186.5,188.5C 185.5,188.5 184.5,188.5 183.5,188.5C 182.756,192.119 182.423,195.785 182.5,199.5C 181.833,199.167 181.167,198.833 180.5,198.5C 180.771,196.62 180.104,195.287 178.5,194.5C 176.604,191.74 173.937,190.906 170.5,192C 167.977,193.36 165.977,195.193 164.5,197.5C 166.503,191.861 168.67,186.194 171,180.5C 171.494,178.866 171.66,177.199 171.5,175.5 Z"/></g>
<g><path style="opacity:1" fill="#4a0b89" d="M 168.5,174.5 C 169.391,175.11 170.391,175.443 171.5,175.5C 171.66,177.199 171.494,178.866 171,180.5C 168.67,186.194 166.503,191.861 164.5,197.5C 163.954,199.303 163.12,200.97 162,202.5C 161.336,199.484 161.836,196.651 163.5,194C 163.361,192.699 162.695,191.866 161.5,191.5C 161.955,184.94 164.288,179.273 168.5,174.5 Z"/></g>
<g><path style="opacity:1" fill="#855ebe" d="M 111.5,200.5 C 112.317,197.381 113.317,194.381 114.5,191.5C 116.738,192.537 119.071,192.703 121.5,192C 122.337,190.989 122.67,189.822 122.5,188.5C 121.022,188.762 119.689,188.429 118.5,187.5C 120.396,186.534 122.396,186.201 124.5,186.5C 123.304,191.9 121.804,197.233 120,202.5C 119.586,202.957 119.086,203.291 118.5,203.5C 117.548,201.955 117.215,200.288 117.5,198.5C 115.142,198.253 113.142,198.919 111.5,200.5 Z"/></g>
<g><path style="opacity:1" fill="#e8d3f5" d="M 161.5,191.5 C 162.695,191.866 163.361,192.699 163.5,194C 161.836,196.651 161.336,199.484 162,202.5C 163.12,200.97 163.954,199.303 164.5,197.5C 165.977,195.193 167.977,193.36 170.5,192C 173.937,190.906 176.604,191.74 178.5,194.5C 178.896,197.044 178.229,199.211 176.5,201C 173.937,202.079 171.271,202.579 168.5,202.5C 168.018,197.318 170.351,194.651 175.5,194.5C 173.643,193.246 171.643,193.246 169.5,194.5C 167.352,198.141 165.352,201.807 163.5,205.5C 162.365,207.213 160.698,207.88 158.5,207.5C 157.202,206.884 156.202,206.884 155.5,207.5C 149.556,206.222 143.556,206.222 137.5,207.5C 136.549,205.099 135.216,202.932 133.5,201C 134.869,197.283 135.536,193.45 135.5,189.5C 133.208,189.244 131.041,189.577 129,190.5C 128.187,196.617 126.021,202.117 122.5,207C 118.061,209.124 114.394,208.291 111.5,204.5C 111.5,203.167 111.5,201.833 111.5,200.5C 113.142,198.919 115.142,198.253 117.5,198.5C 117.215,200.288 117.548,201.955 118.5,203.5C 119.086,203.291 119.586,202.957 120,202.5C 121.804,197.233 123.304,191.9 124.5,186.5C 122.396,186.201 120.396,186.534 118.5,187.5C 119.689,188.429 121.022,188.762 122.5,188.5C 122.67,189.822 122.337,190.989 121.5,192C 119.071,192.703 116.738,192.537 114.5,191.5C 112.994,188.531 113.327,185.698 115.5,183C 121.102,182.277 126.602,182.777 132,184.5C 134.17,183.478 136.336,182.478 138.5,181.5C 138.192,183.924 138.526,186.257 139.5,188.5C 140.983,191.474 142.65,194.307 144.5,197C 143.244,198.845 142.244,200.845 141.5,203C 141.833,203.5 142.167,204 142.5,204.5C 146.444,201.533 148.61,197.533 149,192.5C 150.699,191.594 152.533,191.261 154.5,191.5C 154.462,194.951 153.795,198.284 152.5,201.5C 152.833,202.167 153.167,202.833 153.5,203.5C 156.102,200.294 157.602,196.628 158,192.5C 159.011,191.663 160.178,191.33 161.5,191.5 Z"/></g>
<g><path style="opacity:1" fill="#8e71c0" d="M 136.5,183.5 C 137.776,184.386 137.776,185.386 136.5,186.5C 133.63,187.122 130.796,187.789 128,188.5C 127.356,194.945 125.189,200.779 121.5,206C 115.031,207.537 112.865,205.37 115,199.5C 115.183,206.002 117.516,207.002 122,202.5C 123.333,197.167 124.667,191.833 126,186.5C 129.076,185.712 132.242,185.212 135.5,185C 136.056,184.617 136.389,184.117 136.5,183.5 Z"/></g>
<g><path style="opacity:1" fill="#8b6db1" d="M 117.5,183.5 C 119.527,183.338 121.527,183.505 123.5,184C 121.112,184.303 118.945,185.137 117,186.5C 116.667,188.047 117.167,189.38 118.5,190.5C 116.461,191.359 115.128,190.526 114.5,188C 114.957,186.06 115.957,184.56 117.5,183.5 Z"/></g>
<g><path style="opacity:1" fill="#8267ac" d="M 137.5,189.5 C 138.896,192.085 140.563,194.585 142.5,197C 140.823,199.547 140.156,202.38 140.5,205.5C 141.552,205.351 142.552,205.517 143.5,206C 138.333,207.5 136.5,205.667 138,200.5C 141.333,198.167 141.333,195.833 138,193.5C 137.51,192.207 137.343,190.873 137.5,189.5 Z"/></g>
<g><path style="opacity:1" fill="#eddaf9" d="M 180.5,198.5 C 181.167,198.833 181.833,199.167 182.5,199.5C 181.833,201.167 181.167,202.833 180.5,204.5C 176.726,207.262 172.393,208.262 167.5,207.5C 169.969,206.683 172.635,206.183 175.5,206C 174.167,205.667 172.833,205.333 171.5,205C 175.8,204.521 178.8,202.354 180.5,198.5 Z"/></g>
<g><path style="opacity:1" fill="#4f2278" d="M 159.5,193.5 C 160.376,193.369 161.043,193.702 161.5,194.5C 159.67,198.28 159.336,202.114 160.5,206C 159.552,206.483 158.552,206.649 157.5,206.5C 157.423,202.038 158.09,197.705 159.5,193.5 Z"/></g>
<g><path style="opacity:1" fill="#aa94cb" d="M 175.5,194.5 C 170.351,194.651 168.018,197.318 168.5,202.5C 171.271,202.579 173.937,202.079 176.5,201C 178.229,199.211 178.896,197.044 178.5,194.5C 180.104,195.287 180.771,196.62 180.5,198.5C 178.8,202.354 175.8,204.521 171.5,205C 172.833,205.333 174.167,205.667 175.5,206C 172.635,206.183 169.969,206.683 167.5,207.5C 166.395,206.4 165.062,205.733 163.5,205.5C 165.352,201.807 167.352,198.141 169.5,194.5C 171.643,193.246 173.643,193.246 175.5,194.5 Z"/></g>
<g><path style="opacity:1" fill="#8c6bb9" d="M 175.5,194.5 C 177.344,195.204 177.844,196.537 177,198.5C 175.867,200.211 174.367,200.711 172.5,200C 174.607,198.736 175.607,196.903 175.5,194.5 Z"/></g>
<g><path style="opacity:1" fill="#8466b4" d="M 150.5,193.5 C 151.376,193.369 152.043,193.702 152.5,194.5C 151.727,197.465 151.061,200.465 150.5,203.5C 150.818,204.647 151.484,205.481 152.5,206C 151.207,206.49 149.873,206.657 148.5,206.5C 148.982,202.127 149.648,197.794 150.5,193.5 Z"/></g>
<g><path style="opacity:1" fill="#7d4bc4" d="M 180.5,204.5 C 178.876,217.44 178.209,230.44 178.5,243.5C 177.5,243.5 176.5,243.5 175.5,243.5C 172.609,234.735 170.609,225.735 169.5,216.5C 164.293,228.058 158.793,239.391 153,250.5C 153.882,236.586 156.382,222.92 160.5,209.5C 159.757,208.818 159.091,208.151 158.5,207.5C 160.698,207.88 162.365,207.213 163.5,205.5C 165.062,205.733 166.395,206.4 167.5,207.5C 172.393,208.262 176.726,207.262 180.5,204.5 Z"/></g>
<g><path style="opacity:1" fill="#b798ce" d="M 191.5,193.5 C 205.515,205.446 211.015,220.78 208,239.5C 208.272,250.939 205.105,261.273 198.5,270.5C 187.695,281.299 174.695,288.466 159.5,292C 149.628,293.297 139.794,294.464 130,295.5C 129.5,318.164 129.333,340.831 129.5,363.5C 113.833,363.5 98.1667,363.5 82.5,363.5C 82.5,359.5 82.5,355.5 82.5,351.5C 94.1667,351.5 105.833,351.5 117.5,351.5C 117.5,328.5 117.5,305.5 117.5,282.5C 126.208,282.701 134.875,282.201 143.5,281C 183.333,273.838 201,250.171 196.5,210C 194.52,204.564 192.854,199.064 191.5,193.5 Z"/></g>
<g><path style="opacity:1" fill="#7e4cc5" d="M 155.5,207.5 C 153.299,218.088 151.132,228.754 149,239.5C 148.501,243.486 148.334,247.486 148.5,251.5C 145.553,250.595 142.887,249.095 140.5,247C 127.785,234.807 118.118,220.641 111.5,204.5C 114.394,208.291 118.061,209.124 122.5,207C 126.021,202.117 128.187,196.617 129,190.5C 131.041,189.577 133.208,189.244 135.5,189.5C 135.536,193.45 134.869,197.283 133.5,201C 135.216,202.932 136.549,205.099 137.5,207.5C 143.556,206.222 149.556,206.222 155.5,207.5 Z"/></g>
<g><path style="opacity:1" fill="#7448a3" d="M 375.5,232.5 C 374.507,270.094 374.173,307.761 374.5,345.5C 373.833,326.836 373.5,308.003 373.5,289C 373.5,269.821 374.167,250.988 375.5,232.5 Z"/></g>
<g><path style="opacity:1" fill="#683398" d="M 401.5,236.5 C 400.859,246.889 401.526,256.889 403.5,266.5C 402.791,267.404 401.791,267.737 400.5,267.5C 400.5,255.167 400.5,242.833 400.5,230.5C 393.833,231.167 387.167,231.833 380.5,232.5C 387.256,230.605 394.256,229.272 401.5,228.5C 401.5,231.167 401.5,233.833 401.5,236.5 Z"/></g>
<g><path style="opacity:1" fill="#e8dcf0" d="M 405.5,235.5 C 406.209,234.596 407.209,234.263 408.5,234.5C 408.5,243.833 408.5,253.167 408.5,262.5C 414.463,261.47 420.463,261.303 426.5,262C 428.744,262.05 430.411,262.883 431.5,264.5C 424.558,262.535 417.558,262.201 410.5,263.5C 409.5,263.5 408.5,263.5 407.5,263.5C 408.139,253.773 407.472,244.44 405.5,235.5 Z"/></g>
<g><path style="opacity:1" fill="#a47bc5" d="M 327.5,242.5 C 325.162,244.04 322.495,244.706 319.5,244.5C 321.905,243.232 324.572,242.565 327.5,242.5 Z"/></g>
<g><path style="opacity:1" fill="#9c76c3" d="M 319.5,244.5 C 317.095,245.768 314.428,246.435 311.5,246.5C 313.838,244.96 316.505,244.294 319.5,244.5 Z"/></g>
<g><path style="opacity:1" fill="#4a0389" d="M 327.5,242.5 C 328.167,242.5 328.833,242.5 329.5,242.5C 329.5,249.5 329.5,256.5 329.5,263.5C 331.833,263.5 334.167,263.5 336.5,263.5C 340.167,263.5 343.833,263.5 347.5,263.5C 346.587,270.474 345.92,277.474 345.5,284.5C 340.167,284.5 334.833,284.5 329.5,284.5C 329.333,296.838 329.5,309.171 330,321.5C 331.444,323.155 333.278,323.822 335.5,323.5C 338.385,323.806 341.052,323.473 343.5,322.5C 345.144,322.286 346.644,322.62 348,323.5C 348.505,325.518 349.005,327.518 349.5,329.5C 351.183,333.631 351.85,337.964 351.5,342.5C 343.567,343.933 335.567,344.933 327.5,345.5C 322.178,345.861 317.178,344.861 312.5,342.5C 306.799,339.123 303.465,334.123 302.5,327.5C 302.5,313.167 302.5,298.833 302.5,284.5C 298.5,284.5 294.5,284.5 290.5,284.5C 290.5,277.5 290.5,270.5 290.5,263.5C 294.833,263.5 299.167,263.5 303.5,263.5C 303.524,258.077 304.19,252.743 305.5,247.5C 307.5,247.167 309.5,246.833 311.5,246.5C 314.428,246.435 317.095,245.768 319.5,244.5C 322.495,244.706 325.162,244.04 327.5,242.5 Z"/></g>
<g><path style="opacity:1" fill="#bb9dd4" d="M 329.5,242.5 C 330.468,244.607 330.802,246.941 330.5,249.5C 332.5,249.5 334.5,249.5 336.5,249.5C 336.5,254.167 336.5,258.833 336.5,263.5C 334.167,263.5 331.833,263.5 329.5,263.5C 329.5,256.5 329.5,249.5 329.5,242.5 Z"/></g>
<g><path style="opacity:1" fill="#b79bd2" d="M 405.5,235.5 C 407.472,244.44 408.139,253.773 407.5,263.5C 408.5,263.5 409.5,263.5 410.5,263.5C 408.025,264.131 405.691,265.131 403.5,266.5C 401.526,256.889 400.859,246.889 401.5,236.5C 402.959,236.567 404.292,236.234 405.5,235.5 Z"/></g>
<g><path style="opacity:1" fill="#562883" d="M 223.5,262.5 C 219.473,264.257 215.473,266.423 211.5,269C 210.207,269.49 208.873,269.657 207.5,269.5C 211.887,265.251 217.22,262.918 223.5,262.5 Z"/></g>
<g><path style="opacity:1" fill="#4a0589" d="M 264.5,271.5 C 264.333,285.837 264.5,300.171 265,314.5C 265.584,319.585 266.584,324.585 268,329.5C 268.949,331.093 270.115,332.426 271.5,333.5C 271.877,335.258 272.544,336.925 273.5,338.5C 266.081,341.713 258.414,344.046 250.5,345.5C 248.433,342.191 246.266,338.857 244,335.5C 233.487,345.899 221.32,348.233 207.5,342.5C 205.093,341.206 202.926,339.539 201,337.5C 190.676,320.873 188.676,303.206 195,284.5C 198.018,278.334 202.185,273.334 207.5,269.5C 208.873,269.657 210.207,269.49 211.5,269C 215.473,266.423 219.473,264.257 223.5,262.5C 228.65,261.349 233.984,261.183 239.5,262C 247.784,263.577 256.118,264.744 264.5,265.5C 264.5,267.5 264.5,269.5 264.5,271.5 Z"/></g>
<g><path style="opacity:1" fill="#4a028a" d="M 403.5,266.5 C 408.598,265.602 413.765,264.935 419,264.5C 430.331,263.82 437.664,268.82 441,279.5C 442.473,300.54 442.973,321.54 442.5,342.5C 434.565,343.931 426.565,344.598 418.5,344.5C 418.667,327.163 418.5,309.83 418,292.5C 417.95,290.256 417.117,288.589 415.5,287.5C 413.947,284.746 411.614,283.913 408.5,285C 405.254,286.984 403.088,289.818 402,293.5C 401.5,310.83 401.333,328.163 401.5,345.5C 394.5,345.5 387.5,345.5 380.5,345.5C 378.5,345.5 376.5,345.5 374.5,345.5C 374.173,307.761 374.507,270.094 375.5,232.5C 377.167,232.5 378.833,232.5 380.5,232.5C 387.167,231.833 393.833,231.167 400.5,230.5C 400.5,242.833 400.5,255.167 400.5,267.5C 401.791,267.737 402.791,267.404 403.5,266.5 Z"/></g>
<g><path style="opacity:1" fill="#ae86cf" d="M 290.5,263.5 C 290.5,270.5 290.5,277.5 290.5,284.5C 294.5,284.5 298.5,284.5 302.5,284.5C 302.5,298.833 302.5,313.167 302.5,327.5C 301.505,315.678 301.172,303.678 301.5,291.5C 301.5,289.5 301.5,287.5 301.5,285.5C 299.833,285.5 298.167,285.5 296.5,285.5C 294.167,285.5 291.833,285.5 289.5,285.5C 289.175,277.981 289.508,270.648 290.5,263.5 Z"/></g>
<g><path style="opacity:1" fill="#b288d6" d="M 227.5,283.5 C 230.5,283.5 233.5,283.5 236.5,283.5C 236.5,284.833 236.5,286.167 236.5,287.5C 235.596,286.791 235.263,285.791 235.5,284.5C 232.482,284.335 229.482,284.502 226.5,285C 225.657,286.787 225.49,288.62 226,290.5C 224.605,289.185 223.605,289.519 223,291.5C 221.713,299.781 221.213,308.114 221.5,316.5C 220.18,307.628 220.346,298.628 222,289.5C 222.715,286.359 224.548,284.359 227.5,283.5 Z"/></g>
<g><path style="opacity:1" fill="#a476d0" d="M 345.5,284.5 C 340.695,285.487 335.695,285.821 330.5,285.5C 330.333,296.838 330.5,308.172 331,319.5C 331.589,321.863 333.089,322.863 335.5,322.5C 335.5,322.833 335.5,323.167 335.5,323.5C 333.278,323.822 331.444,323.155 330,321.5C 329.5,309.171 329.333,296.838 329.5,284.5C 334.833,284.5 340.167,284.5 345.5,284.5 Z"/></g>
<g><path style="opacity:1" fill="#b79bd1" d="M 347.5,263.5 C 348.468,265.607 348.802,267.941 348.5,270.5C 350.5,270.5 352.5,270.5 354.5,270.5C 353.83,277.523 352.83,284.523 351.5,291.5C 346.5,291.5 341.5,291.5 336.5,291.5C 335.506,301.653 335.172,311.986 335.5,322.5C 333.089,322.863 331.589,321.863 331,319.5C 330.5,308.172 330.333,296.838 330.5,285.5C 335.695,285.821 340.695,285.487 345.5,284.5C 345.92,277.474 346.587,270.474 347.5,263.5 Z"/></g>
<g><path style="opacity:1" fill="#8050a8" d="M 227.5,283.5 C 230.625,282.521 233.958,282.187 237.5,282.5C 237.825,289.687 237.491,296.687 236.5,303.5C 236.5,299.167 236.5,294.833 236.5,290.5C 236.5,289.5 236.5,288.5 236.5,287.5C 236.5,286.167 236.5,284.833 236.5,283.5C 233.5,283.5 230.5,283.5 227.5,283.5 Z"/></g>
<g><path style="opacity:1" fill="#b69fd1" d="M 296.5,285.5 C 298.167,285.5 299.833,285.5 301.5,285.5C 301.5,287.5 301.5,289.5 301.5,291.5C 299.833,291.5 298.167,291.5 296.5,291.5C 296.5,289.5 296.5,287.5 296.5,285.5 Z"/></g>
<g><path style="opacity:1" fill="#b99dd2" d="M 236.5,287.5 C 236.5,288.5 236.5,289.5 236.5,290.5C 234.16,291.086 231.993,292.086 230,293.5C 227.607,302.688 226.94,312.021 228,321.5C 228.671,322.252 229.504,322.586 230.5,322.5C 225.296,324.307 222.296,322.307 221.5,316.5C 221.213,308.114 221.713,299.781 223,291.5C 223.605,289.519 224.605,289.185 226,290.5C 225.49,288.62 225.657,286.787 226.5,285C 229.482,284.502 232.482,284.335 235.5,284.5C 235.263,285.791 235.596,286.791 236.5,287.5 Z"/></g>
<g><path style="opacity:1" fill="#fbf6fb" d="M 236.5,290.5 C 236.5,294.833 236.5,299.167 236.5,303.5C 236.482,310.551 234.482,316.885 230.5,322.5C 229.504,322.586 228.671,322.252 228,321.5C 226.94,312.021 227.607,302.688 230,293.5C 231.993,292.086 234.16,291.086 236.5,290.5 Z"/></g>
<g><path style="opacity:1" fill="#4a157d" d="M 431.5,264.5 C 435.827,266.827 439.16,270.16 441.5,274.5C 442.03,276.924 442.864,279.257 444,281.5C 444.5,302.831 444.667,324.164 444.5,345.5C 437.5,345.5 430.5,345.5 423.5,345.5C 421.167,345.5 418.833,345.5 416.5,345.5C 416.5,327.833 416.5,310.167 416.5,292.5C 415.962,290.883 415.629,289.216 415.5,287.5C 417.117,288.589 417.95,290.256 418,292.5C 418.5,309.83 418.667,327.163 418.5,344.5C 426.565,344.598 434.565,343.931 442.5,342.5C 442.973,321.54 442.473,300.54 441,279.5C 437.664,268.82 430.331,263.82 419,264.5C 413.765,264.935 408.598,265.602 403.5,266.5C 405.691,265.131 408.025,264.131 410.5,263.5C 417.558,262.201 424.558,262.535 431.5,264.5 Z"/></g>
<g><path style="opacity:1" fill="#beb1cc" d="M 336.5,291.5 C 336.5,301.833 336.5,312.167 336.5,322.5C 338.833,322.5 341.167,322.5 343.5,322.5C 341.052,323.473 338.385,323.806 335.5,323.5C 335.5,323.167 335.5,322.833 335.5,322.5C 335.172,311.986 335.506,301.653 336.5,291.5 Z"/></g>
<g><path style="opacity:1" fill="#b799d3" d="M 415.5,287.5 C 415.629,289.216 415.962,290.883 416.5,292.5C 415.178,292.33 414.011,292.663 413,293.5C 411.293,296.856 409.627,300.19 408,303.5C 407.5,319.83 407.333,336.163 407.5,352.5C 398.5,352.5 389.5,352.5 380.5,352.5C 380.5,350.167 380.5,347.833 380.5,345.5C 387.5,345.5 394.5,345.5 401.5,345.5C 401.333,328.163 401.5,310.83 402,293.5C 403.088,289.818 405.254,286.984 408.5,285C 411.614,283.913 413.947,284.746 415.5,287.5 Z"/></g>
<g><path style="opacity:1" fill="#b997d6" d="M 441.5,274.5 C 442.167,274.833 442.833,275.167 443.5,275.5C 444.84,279.371 445.673,283.371 446,287.5C 446.667,351.5 447.333,351.5 448,287.5C 448.5,308.831 448.667,330.164 448.5,351.5C 445.833,351.5 443.167,351.5 440.5,351.5C 440.67,350.178 440.337,349.011 439.5,348C 434.192,347.17 428.859,346.67 423.5,346.5C 423.5,346.167 423.5,345.833 423.5,345.5C 430.5,345.5 437.5,345.5 444.5,345.5C 444.667,324.164 444.5,302.831 444,281.5C 442.864,279.257 442.03,276.924 441.5,274.5 Z"/></g>
<g><path style="opacity:1" fill="#b69dcb" d="M 443.5,275.5 C 447.059,278.616 449.225,282.616 450,287.5C 450.5,309.164 450.667,330.831 450.5,352.5C 441.5,352.5 432.5,352.5 423.5,352.5C 423.5,350.5 423.5,348.5 423.5,346.5C 428.859,346.67 434.192,347.17 439.5,348C 440.337,349.011 440.67,350.178 440.5,351.5C 443.167,351.5 445.833,351.5 448.5,351.5C 448.667,330.164 448.5,308.831 448,287.5C 447.333,351.5 446.667,351.5 446,287.5C 445.673,283.371 444.84,279.371 443.5,275.5 Z"/></g>
<g><path style="opacity:1" fill="#ba90de" d="M 264.5,271.5 C 265.167,271.5 265.5,271.833 265.5,272.5C 265.181,288.197 265.681,303.864 267,319.5C 268.822,324.144 270.322,328.81 271.5,333.5C 270.115,332.426 268.949,331.093 268,329.5C 266.584,324.585 265.584,319.585 265,314.5C 264.5,300.171 264.333,285.837 264.5,271.5 Z"/></g>
<g><path style="opacity:1" fill="#b99dd1" d="M 265.5,272.5 C 267.467,272.261 269.301,272.594 271,273.5C 271.333,291.5 271.667,309.5 272,327.5C 274.099,333.528 276.599,339.361 279.5,345C 272.167,349.335 264.167,351.501 255.5,351.5C 254.906,348.575 253.239,346.575 250.5,345.5C 258.414,344.046 266.081,341.713 273.5,338.5C 272.544,336.925 271.877,335.258 271.5,333.5C 270.322,328.81 268.822,324.144 267,319.5C 265.681,303.864 265.181,288.197 265.5,272.5 Z"/></g>
<g><path style="opacity:1" fill="#b89cd2" d="M 349.5,329.5 C 351.5,329.5 353.5,329.5 355.5,329.5C 356,335.339 357.333,341.005 359.5,346.5C 359.219,348.778 357.885,349.945 355.5,350C 346.274,352.16 336.941,352.827 327.5,352C 323.458,351.653 319.792,350.32 316.5,348C 314.536,346.549 313.203,344.716 312.5,342.5C 317.178,344.861 322.178,345.861 327.5,345.5C 335.567,344.933 343.567,343.933 351.5,342.5C 351.85,337.964 351.183,333.631 349.5,329.5 Z"/></g>
<g><path style="opacity:1" fill="#b79bd1" d="M 250.5,345.5 C 249.577,344.697 248.577,344.53 247.5,345C 242.797,350.78 236.63,353.28 229,352.5C 219.768,353.058 212.601,349.725 207.5,342.5C 221.32,348.233 233.487,345.899 244,335.5C 246.266,338.857 248.433,342.191 250.5,345.5 Z"/></g>
</svg>
